<svg id="twitter" xmlns="http://www.w3.org/2000/svg" x="0px" y="0px" viewBox="0 0 248 248">
<path d="M221.9,73.7c0.1,2.2,0.1,4.3,0.1,6.5c0,66.7-50.8,143.7-143.7,143.7l0,0c-27.4,0-54.3-7.8-77.4-22.6c4,0.5,8,0.7,12,0.7
	c22.7,0,44.8-7.6,62.7-21.7C54,179.9,35,165.8,28.4,145.2c7.6,1.5,15.4,1.2,22.8-0.9c-23.6-4.8-40.5-25.5-40.5-49.5v-0.6
	c7,3.9,14.9,6.1,22.9,6.3C11.4,85.7,4.6,56.2,18,33.1c25.6,31.6,63.5,50.7,104.1,52.8c-4.1-17.5,1.5-35.9,14.6-48.2
	c20.3-19.1,52.3-18.1,71.4,2.2c11.3-2.2,22.1-6.4,32.1-12.3c-3.8,11.7-11.7,21.6-22.2,27.9c10-1.2,19.8-3.9,29-8
	C240.4,57.7,231.8,66.5,221.9,73.7L221.9,73.7z"/>
</svg>
