<svg id="pinterest" xmlns="http://www.w3.org/2000/svg" x="0px" y="0px" viewBox="0 0 100 100">
<path d="M50,0C22.3,0,0,22.4,0,50c0,21.2,13.2,39.3,31.8,46.6c-0.5-3.9-0.8-10,0.2-14.4c0.9-3.9,5.8-24.8,5.8-24.8
	s-1.5-3-1.5-7.4c0-7,4-12.1,9-12.1c4.3,0,6.3,3.2,6.3,7c0,4.3-2.7,10.7-4.2,16.7c-1.2,5,2.5,9.1,7.4,9.1c8.9,0,15.7-9.4,15.7-22.9
	c0-12-8.6-20.3-20.9-20.3C35.5,27.4,27.1,38,27.1,49c0,4.3,1.6,8.9,3.7,11.4c0.4,0.5,0.5,0.9,0.3,1.4c-0.4,1.6-1.2,5-1.4,5.7
	c-0.2,0.9-0.7,1.1-1.7,0.7c-6.2-3-10-12.1-10-19.4c0-15.8,11.4-30.2,33-30.2c17.3,0,30.8,12.3,30.8,28.9C81.9,64.7,71,78.5,56,78.5
	c-5.1,0-9.8-2.6-11.4-5.8l-3.1,11.9c-1.1,4.4-4.2,9.8-6.2,13.1C40,99.3,45,100,50,100c27.6,0,50-22.4,50-50C100,22.4,77.6,0,50,0z"
	/>
</svg>
