<svg id="note" xmlns="http://www.w3.org/2000/svg" x="0px" y="0px" viewBox="0 0 188 188">
<path d="M74.4,63.7V49.3c0-2.6,0.1-3.5,0.5-4.8c1.1-3.7,4.7-6.4,9-6.4s8,2.8,9,6.4c0.4,1.3,0.5,2.2,0.5,4.8v22.2
	c0,1.3,0,2.7-0.3,3.9c-0.7,3.4-3.8,6.4-7.1,7.1c-1.2,0.3-2.6,0.3-3.9,0.3H60c-2.6,0-3.5-0.1-4.9-0.5c-3.6-1.1-6.5-4.7-6.5-9
	s2.8-7.9,6.5-9c1.3-0.4,2.2-0.5,4.9-0.5h14.4V63.7z M153.6,164.2H34.4V59.5c0-1.3,0.5-2.5,1.4-3.4l30.9-30.8
	c0.9-0.9,2.1-1.4,3.4-1.4h83.5V164.2z M167.2,0.1c-0.6-0.1-1.4-0.1-3-0.1H67c-1.1,0-2.2,0.1-2.9,0.1c-4.5,0.4-8.4,2.5-11.6,5.7
	L16.3,41.9C13.1,45,11,49,10.6,53.4c0,0.8-0.1,1.8-0.1,2.9v118.5c0,1.5,0.1,2.4,0.1,3c0.5,5,5.1,9.6,10.2,10.1
	c0.6,0.1,1.4,0.1,3,0.1h140.4c1.5,0,2.4-0.1,3-0.1c5.1-0.5,9.6-5.1,10.2-10.1c0.1-0.6,0.1-1.4,0.1-3V13.2c0-1.5-0.1-2.4-0.1-3
	C176.8,5.2,172.2,0.7,167.2,0.1z"/>
</svg>
