<svg xmlns="http://www.w3.org/2000/svg" x="0px" y="0px" width="147.1px" height="181.8px" viewBox="0 0 147.1 181.8" style="enable-background:new 0 0 147.1 181.8;" xml:space="preserve">
<style type="text/css">
	.svg__logo{fill:#FFFFFF;}
</style>
<path class="svg__logo" d="M147.1,0v1.5c-13.7,1.2-25.2,20-39,47.2L89.6,85.1c-10.5,22.9-42.1,33.3-41.9,44.6c0,1.7,0.9,2.3,2,2.3
	c12.3,0,35.2-35.8,51.8-35.8c4.2,0.1,7.6,3.6,7.5,7.8c0,12.6-26.6,19.2-26.6,46.6c0,18.5,1,29.6,18,29.6v1.5H42.5v-1.5
	c17,0,18-11.2,18-29.6c0-20.8,29.7-30.1,29.7-37c0.2-1.7-1.1-3.3-2.8-3.5c-10.1,0-22.2,24.6-38.1,24.6c-2.8,0.2-5.2-2-5.4-4.8
	c0-0.4,0-0.7,0-1.1c0-5.7,9.4-11.8,19.5-20L24,32C12.5,9.7,7.7,2.7,0,1.5V0h56.7v1.5c-15,1-18.7,9.7-11.5,23.7l34.3,67.7
	c1.9-2.5,3.5-5.1,4.8-7.9l19.3-37.9c14.5-28.7,18.7-43.5,2.2-45.7V0L147.1,0z"/>
</svg>
