<svg xmlns="http://www.w3.org/2000/svg" width="400" height="115" viewBox="0 0 400 115">
<defs>
<style>.svg__loading-logo{fill:#fff;}.svg__loading-bg{fill:#1d1d1d;}</style>
</defs>
<g>
<rect class="svg__loading-bg" width="400" height="115"/>
<g>
<path class="svg__loading-logo" d="M51.3816,76.369v-20.665l-16.3809-24.0674h1.5752l15.4355,22.8071,15.436-22.8071h1.5752l-16.3809,24.0674v20.665h-1.2603Z"/><path class="svg__loading-logo" d="M98.1287,43.6073v32.7617h-1.2598v-5.2925c-3.5913,4.0952-7.9385,6.1743-12.79,6.1743-7.2451,0-11.5293-4.5991-11.5293-12.3486v-21.2949h1.2598v21.3579c0,6.9307,3.8433,11.0889,10.2695,11.0889,4.9146,0,9.2617-2.3311,12.79-6.8047v-25.6421h1.2598Z"/><path class="svg__loading-logo" d="M108.2078,76.369V31.6366h1.2603v32.8247l23.1226-20.854h1.8271l-14.6172,13.1675,14.6172,19.5942h-1.5752l-13.9868-18.7119-9.3877,8.3164v10.3955h-1.2603Z"/><path class="svg__loading-logo" d="M140.6541,48.0175l-.6929-1.1343c4.5361-2.835,8.7573-4.1582,13.168-4.1582,7.0562,0,10.5215,3.3394,10.5215,10.1436v16.6963c0,4.0322,.4409,5.355,2.2681,6.7412l-.7559,.9448c-1.9531-1.3228-2.7095-2.9609-2.7725-5.8589-4.1582,3.9692-8.1904,5.8589-12.6636,5.8589-6.6152,0-10.7739-3.8428-10.7739-9.8911,0-7.3716,5.6074-10.0176,23.4375-11.0889v-3.2134c0-6.1743-3.0239-9.1353-9.3242-9.1353-4.1587,0-8.1279,1.3232-12.4121,4.0952Zm21.7363,9.4507c-16.8848,1.0078-22.1772,3.4019-22.1772,10.0176,0,5.229,3.7173,8.5684,9.5767,8.5684,4.3472,0,8.1274-1.8901,12.6006-6.3003v-12.2856Z"/><path class="svg__loading-logo" d="M194.8982,76.369V31.6366h1.2598v24.2563l27.0288-24.2563h1.8271l-19.4043,17.3887,20.4131,27.3438h-1.5752l-19.7832-26.4614-8.5063,7.4976v18.9639h-1.2598Z"/><path class="svg__loading-logo" d="M233.6448,48.0175l-.6934-1.1343c4.5361-2.835,8.7578-4.1582,13.168-4.1582,7.0566,0,10.5215,3.3394,10.5215,10.1436v16.6963c0,4.0322,.4404,5.355,2.2676,6.7412l-.7559,.9448c-1.9531-1.3228-2.709-2.9609-2.7715-5.8589-4.1582,3.9692-8.1904,5.8589-12.6641,5.8589-6.6152,0-10.7734-3.8428-10.7734-9.8911,0-7.3716,5.6074-10.0176,23.4375-11.0889v-3.2134c0-6.1743-3.0244-9.1353-9.3252-9.1353-4.1582,0-8.127,1.3232-12.4111,4.0952Zm21.7363,9.4507c-16.8857,1.0078-22.1777,3.4019-22.1777,10.0176,0,5.229,3.7168,8.5684,9.5762,8.5684,4.3477,0,8.1279-1.8901,12.6016-6.3003v-12.2856Z"/><path class="svg__loading-logo" d="M267.3499,76.369V43.6073h1.2607v5.292c3.5908-4.0952,7.9385-6.1743,12.7891-6.1743,7.2461,0,11.5303,4.5996,11.5303,12.3486v21.2954h-1.2607v-21.3584c0-6.9302-3.8428-11.0884-10.2695-11.0884-4.9141,0-9.2617,2.3311-12.7891,6.8042v25.6426h-1.2607Z"/><path class="svg__loading-logo" d="M301.7473,76.369V43.6073h1.2607v5.292c3.5908-4.0952,7.9385-6.1743,12.7891-6.1743,7.2461,0,11.5303,4.5996,11.5303,12.3486v21.2954h-1.2607v-21.3584c0-6.9302-3.8428-11.0884-10.2695-11.0884-4.9141,0-9.2617,2.3311-12.7891,6.8042v25.6426h-1.2607Z"/><path class="svg__loading-logo" d="M334.2561,60.0511c0-10.4585,5.5439-17.3262,13.8604-17.3262,8.2539,0,13.7354,6.8047,13.7354,17.2002,0,10.4585-5.5449,17.3257-13.8613,17.3257-8.2529,0-13.7344-6.8042-13.7344-17.1997Zm26.335-.126c0-9.6396-4.9766-16.0029-12.4746-16.0029-7.5605,0-12.6006,6.4263-12.6006,16.1289,0,9.6396,4.9775,16.0029,12.4746,16.0029,7.5605,0,12.6006-6.4263,12.6006-16.1289Z"/>
</g>
</g>
</svg>
