<svg xmlns="http://www.w3.org/2000/svg" width="400" height="115" viewBox="0 0 400 115">
<defs>
<style>.svg__loading-logo{fill:#fff;}.svg__loading-bg{fill:#1d1d1d;}</style>
</defs>
<g>
<rect class="svg__loading-bg" width="400" height="115"/>
<g>
<path class="svg__loading-logo" d="M76.5582,35.4952v.3916c-3.5728,.3232-6.5601,5.1963-10.1323,12.2754l-4.8218,9.4561c-2.7368,5.9482-10.9448,8.6689-10.9043,11.6084,.0063,.4375,.2349,.6045,.5269,.6045,3.2065,0,9.1602-9.3008,13.4673-9.3008,1.0996,.0205,1.9746,.9277,1.9556,2.0264,0,3.2646-6.9146,4.9863-6.9146,12.127,0,4.8057,.2588,7.707,4.6768,7.707v.3887h-15.0703v-.3887c4.4165,0,4.6768-2.9014,4.6768-7.707,0-5.4209,7.7168-7.8262,7.7168-9.6123,.043-.4531-.2822-.8574-.7339-.9121-2.6279,0-5.7666,6.3945-9.9023,6.3945-.3994,.0264-.7891-.1299-1.0601-.4238-.272-.2939-.396-.6953-.3394-1.0918,0-1.4775,2.4326-3.0596,5.064-5.1982l-10.2334-20.0332c-2.9873-5.7852-4.2227-7.6045-6.2358-7.9287v-.3906h14.7446v.3906c-3.8965,.2598-4.8716,2.5332-2.9873,6.1709l8.9126,17.6133c.4844-.6436,.9053-1.3301,1.2583-2.0518l5.0288-9.8457c3.7661-7.4697,4.8701-11.3037,.583-11.8867v-.3906l10.7241,.0078Z"/><path class="svg__loading-logo" d="M108.4957,81.1515v.3887l-7.21,2.0137h-.2603l-1.0991-6.4639c-3.436,3.5576-7.5171,6.4639-11.856,6.4639-5.0659,0-8.249-2.3799-8.249-8.9404v-.3496c0-9.209,11.0962-9.1895,11.0962-12.6094,.0195-.2617-.0762-.5195-.2637-.7041-.1875-.1836-.4458-.2764-.707-.2529-4.3706,0-7.458,9.3545-14.2554,9.3545-.8242,.0498-1.6313-.2461-2.228-.8164-.5962-.5713-.9268-1.3652-.9121-2.1904,0-5.1035,7.2651-3.7588,7.2651-11.75,0-4.1611-1.2349-5.3271-3.4429-5.9102v-.3896l8.4438-.9102h.2598v7.21c0,9.4307-6.8999,9.2275-6.8999,11.249,0,.4941,.3999,.6787,.8164,.6787,2.9321,0,7.0566-7.7119,11.0093-7.7119,.6021-.0723,1.2061,.125,1.6509,.5371,.4448,.4131,.687,1,.6606,1.6064,0,4.8184-7.229,3.8115-7.229,12.6094,.0508,4.7969,1.6279,5.7803,6.1006,5.7803,3.2144-.2246,6.2729-1.4658,8.7334-3.5469v-21.2021c0-4.1611-1.2349-5.3271-3.4434-5.9102v-.3896l8.4453-.9102h.2588v26.7012c0,4.1572,1.04,5.7168,3.3154,6.3652Z"/><path class="svg__loading-logo" d="M123.6198,82.3859v.3906h-10.979v-.3906c2.6641,0,2.8589-2.208,2.8589-6.3652V40.5538c0-4.1572-1.1045-5.5225-3.314-6.1055v-.3906l8.3149-2.0781h.2598v44.041c0,4.1572,.1948,6.3652,2.8594,6.3652Zm6.3579-23.7773c-3.7104,3.7412-6.0234,6.1045-6.0234,7.8057-.0215,.1631,.0278,.3281,.1348,.4531,.1074,.126,.2622,.1992,.4272,.2041,1.022,0,6.5576-5.6758,8.395-5.6758,.8252,0,1.1592,.5195,1.1592,1.2822,0,1.6318-1.5029,9.0029-1.5029,13.3369,0,3.8252,.9932,5.9121,3.1479,5.9121v.3896c-6.4531,0-8.6562-1.4404-8.6562-6.2969,0-5.8545,6.0811-11.957,6.0811-13.4336,0-.3496-.1523-.4658-.4165-.4658-1.5723,0-6.3232,5.6338-8.5283,5.6338-.3481-.0039-.6777-.1553-.9077-.416s-.3384-.6074-.2983-.9531c0-2.623,2.3906-4.6641,6.2163-8.459,2.7275-2.7275,4.3516-4.71,4.3516-6.458,0-1.4951-1.2988-2.21-2.6631-2.3398v-.3896h11.0415v.3896c-2.0776,.3896-6.4302,4.0273-11.958,9.4805Z"/><path class="svg__loading-logo" d="M171.8951,79.2072c-1.0386,1.9482-3.1821,4.3516-6.105,4.3516-3.2485,0-3.9619-3.1895-4.0923-5.5215-2.6611,3.3135-6.5591,5.5215-10.2607,5.5215-4.417,0-7.5347-2.792-7.5347-6.8203,0-11.3096,13.9604-12.8252,13.9604-18.1895,.002-.2695-.1094-.5283-.3086-.7119-.1978-.1826-.4648-.2744-.7339-.251-3.0913,0-6.6094,4.3291-10.0122,4.3291-1.6987,0-2.8481-1.2705-2.8481-3.3691,0-4.1104,4.9131-10.5869,13.3882-10.5869,6.3003,0,9.3535,4.3525,9.3535,10.459v17.1475c0,2.6631,.1299,4.8711,2.1431,4.8711,1.0718-.0566,2.0562-.6084,2.6636-1.4932l.3867,.2637Zm-10.3901-19.3613c0-1.8828,0-8.9639-6.561-8.9639-1.6118-.0205-3.165,.6025-4.3154,1.7324-1.1504,1.1289-1.8018,2.6709-1.8101,4.2832-.0698,.46,.0728,.9277,.3882,1.2705,.3145,.3428,.7671,.5254,1.2324,.4971,1.1772,0,3.1333-1.9414,6-1.9414,.6787-.0605,1.3486,.1855,1.8276,.6709,.478,.4844,.7153,1.1582,.6455,1.8359,0,4.707-9.749,9.9854-9.749,15.8154,0,3.4434,2.2085,5.5859,5.2622,5.5859,2.5977,0,5.3306-1.6885,7.0796-3.2471v-17.5391Z"/><path class="svg__loading-logo" d="M203.8649,82.3868v.3896h-15.0693v-.3896c4.417,0,4.6768-2.9229,4.6768-7.7295v-31.0498c0-4.8066-.2598-7.7295-4.6768-7.7295v-.3906h15.0693v.3906c-4.418,0-4.6768,2.9229-4.6768,7.7295v31.0498c0,4.8066,.2588,7.7295,4.6768,7.7295Zm10.3867-36.3086c-4.251,4.5186-10.6641,11.1553-10.6641,12.7588,0,.208,.0547,.3379,.2998,.3379,1.4922,0,7.7314-8.1709,13.3955-8.1709,1.167,0,2.0908,.4912,2.0908,1.6328,0,4.7793-4.1982,13.1201-4.1982,21.9346,0,5.3311,1.75,7.8125,5.6338,7.8125v.377c-6.9775,0-11.5439-.4414-11.5439-8.0967,0-9.5068,7.9971-18.4424,7.9971-21.5898,.0205-.1836-.042-.3662-.1709-.498-.1279-.1328-.3096-.1992-.4932-.1836-4.1885,0-9.2324,8.4814-12.8721,8.4814-1.1445,0-1.6875-.7275-1.6875-2.04,0-2.4014,4.75-6.5586,11.2402-13.5371,2.9219-3.3145,4.2861-5.2617,4.2861-6.9502,0-1.625-1.2988-2.3398-2.793-2.4688v-.3906h11.8936v.3906c-1.8848,.3242-6.041,2.9229-12.4141,10.2002Z"/><path class="svg__loading-logo" d="M255.0533,79.2072c-1.0381,1.9482-3.1816,4.3516-6.1045,4.3516-3.249,0-3.9619-3.1895-4.0928-5.5215-2.6611,3.3135-6.5586,5.5215-10.2607,5.5215-4.417,0-7.5342-2.792-7.5342-6.8203,0-11.3096,13.96-12.8252,13.96-18.1895,.0029-.2695-.1094-.5283-.3076-.7119-.1982-.1826-.4658-.2744-.7344-.251-3.0918,0-6.6094,4.3291-10.0117,4.3291-1.6992,0-2.8486-1.2705-2.8486-3.3691,0-4.1104,4.9131-10.5869,13.3887-10.5869,6.2998,0,9.3525,4.3525,9.3525,10.459v17.1475c0,2.6631,.1299,4.8711,2.1436,4.8711,1.0723-.0566,2.0566-.6084,2.6631-1.4932l.3867,.2637Zm-10.3896-19.3613c0-1.8828,0-8.9639-6.5605-8.9639-1.6123-.0205-3.165,.6025-4.3164,1.7324-1.1494,1.1289-1.8018,2.6709-1.8096,4.2832-.0693,.46,.0732,.9277,.3877,1.2705s.7676,.5254,1.2334,.4971c1.1768,0,3.1328-1.9414,5.999-1.9414,.6797-.0605,1.3496,.1855,1.8281,.6709,.4775,.4844,.7148,1.1582,.6455,1.8359,0,4.707-9.749,9.9854-9.749,15.8154,0,3.4434,2.208,5.5859,5.2627,5.5859,2.5977,0,5.3301-1.6885,7.0791-3.2471v-17.5391Z"/><path class="svg__loading-logo" d="M268.9352,82.3859v.3906h-10.9775v-.3906c2.6631,0,2.8574-2.208,2.8574-6.3652v-18.8379c0-4.1572-1.1045-5.5234-3.3125-6.1064v-.3887l8.3154-2.5996h.2578v27.9326c0,4.1572,.1963,6.3652,2.8594,6.3652Zm20.0645,.0361v.3896h-10.9785v-.3896c2.6641,0,2.8584-2.209,2.8584-6.3662,0-8.2764,8.0137-11.2305,8.0137-13.3408,0-.5928-.1963-.8467-.6465-.8467-1.0781,0-7.2451,5.7051-9.4033,5.7051-1.3184,0-1.7852-.6895-1.7852-2.2686,0-2.0244,3.6094-5.666,3.5928-9.3535-.0117-2.4863-1.3525-4.3838-5.8125-4.3838-3.2236,.2012-6.2969,1.4307-8.7695,3.5068v-.583c3.4492-3.5723,7.542-6.4951,11.8926-6.4951,4.833,0,8.2461,2.7314,8.2461,5.9023,0,6.2959-7.6953,9.4463-7.6953,12.0205,0,.5674,.2393,.8008,.7783,.8008,1.251,0,7.5479-5.5967,8.9053-5.5967,1.1562,0,1.792,.626,1.792,2.0166,0,3.7734-3.8369,3.2129-3.8369,12.918,0,4.1572,.1934,6.3662,2.8486,6.3643Z"/><path class="svg__loading-logo" d="M305.2418,82.3859v.3906h-10.9775v-.3906c2.6631,0,2.8574-2.208,2.8574-6.3652v-18.8379c0-4.1572-1.1045-5.5234-3.3125-6.1064v-.3887l8.3154-2.5996h.2578v27.9326c0,4.1572,.1963,6.3652,2.8594,6.3652Zm20.0645,.0361v.3896h-10.9785v-.3896c2.6641,0,2.8584-2.209,2.8584-6.3662,0-8.2764,8.0137-11.2305,8.0137-13.3408,0-.5928-.1963-.8467-.6465-.8467-1.0781,0-7.2451,5.7051-9.4033,5.7051-1.3184,0-1.7852-.6895-1.7852-2.2686,0-2.0244,3.6094-5.666,3.5928-9.3535-.0117-2.4863-1.3525-4.3838-5.8125-4.3838-3.2236,.2012-6.2969,1.4307-8.7695,3.5068v-.583c3.4492-3.5723,7.542-6.4951,11.8926-6.4951,4.833,0,8.2461,2.7314,8.2461,5.9023,0,6.2959-7.6953,9.4463-7.6953,12.0205,0,.5674,.2393,.8008,.7783,.8008,1.251,0,7.5479-5.5967,8.9053-5.5967,1.1562,0,1.792,.626,1.792,2.0166,0,3.7734-3.8369,3.2129-3.8369,12.918,0,4.1572,.1934,6.3662,2.8486,6.3643Z"/><path class="svg__loading-logo" d="M361.7057,65.6271c0,10.7832-6.7559,17.9287-15.7852,17.9287-9.2236,0-15.7197-6.7559-15.7197-17.6689,0-10.7822,6.7559-17.9277,15.8496-17.9277,9.1641,0,15.6553,6.7559,15.6553,17.668Zm-15.6553,17.0205c6.5615,0,9.9375-7.082,9.9375-16.8896,0-9.4199-3.5068-16.8896-10.0674-16.8896s-10.0029,7.0801-10.0029,16.8896c0,9.418,3.5723,16.8877,10.1328,16.8877v.002Z"/></g></g></svg>
