<svg xmlns="http://www.w3.org/2000/svg" width="400" height="115" viewBox="0 0 400 115">
<defs>
<style>.svg__loading-logo{fill:#fff;}.svg__loading-bg{fill:#1d1d1d;}</style>
</defs>
<g>
<rect class="svg__loading-bg" width="400" height="115"/>
<g>
<path class="svg__loading-logo" d="M48.4999,80.1046l3.4629-.2764c2.4243-.208,3.3247-.6924,3.3247-1.1084v-17.6611l-10.2505-18.0771c-2.0781-3.7393-3.0474-4.9863-6.2334-5.1943l-1.9395-.1387-.2075-.415h18.2842l-.2075,.415-2.0776,.0693c-3.6709,.1387-3.7402,1.2471-1.7319,4.918l9.4194,16.6914h.1387l6.5103-12.3281c3.7402-7.1338,3.6709-8.5889-1.7314-9.2119l-1.7314-.1387-.208-.415h15.2373l-.2075,.415-1.5239,.1387c-3.5322,.2773-4.7788,1.0391-8.8652,8.9346l-7.1338,13.3672v18.8389c0,.4844,.4155,.6924,4.0171,.9697l2.7012,.207,.2075,.416h-19.4619l.208-.416Z"/><path class="svg__loading-logo" d="M98.5731,75.3263h-.0693c-2.6318,2.3545-6.6489,6.0947-11.5664,6.0947-2.355,0-4.0171-.623-5.4023-2.0088-1.5234-1.5234-2.0776-3.8086-2.0776-6.6484v-20.1553c0-.415,0-.623-3.5322-.8994l-.9697-.0693-.2075-.416h9.5576v20.6396c0,4.0859,2.0776,6.0947,6.1641,6.0947,3.2554,0,5.7485-1.3857,7.8955-3.3242v-19.3926c0-2.8398-.623-3.3252-3.4629-3.5322l-.9697-.0693-.2075-.416h9.5576v25.0029c0,1.5234,.2773,2.0088,1.7314,2.2158l2.7012,.416-.0693,.3457-9.2114,2.4248,.1387-6.3027Z"/><path class="svg__loading-logo" d="M112.0077,80.1046l1.1772-.0684c2.0776-.1387,2.8398-.208,2.8398-1.0391V40.6964c0-2.7705-.4155-3.5322-2.7705-3.9482l-1.5928-.2764,.0688-.2773,9.1426-2.2852v33.1748l6.8564-6.7178c2.6318-2.6318,4.9175-5.333,4.9175-6.6494,0-1.1084-1.1079-1.7314-3.6709-1.9395l-.9004-.0684-.1382-.416h13.0898l-.2075,.416-1.4546,.1377c-3.186,.2773-4.7788,2.4941-10.3198,8.0342,0,0-1.3853,1.3857-1.3159,1.3857l8.6577,14.2676c2.2163,3.6016,2.7012,4.2246,5.6099,4.502l.7617,.0684,.208,.416h-9.627l-.3467-.8311-8.8652-14.8906-3.2549,3.1162v11.2207c0,.5537,.4155,.6924,3.4629,.9004l.9697,.0684,.2075,.416h-13.7134l.208-.416Z"/><path class="svg__loading-logo" d="M162.1498,76.3654v-.0693c-2.6318,2.4932-5.6099,4.8477-8.8652,4.8477-4.0864,0-6.9258-2.9775-6.9258-6.4404,0-4.502,3.3936-7.8271,16.2759-10.9434l.0693-3.0479c.2769-6.9258-3.1167-8.8652-6.7183-8.8652-2.7705,0-5.7485,1.7314-5.7485,2.5625,0,.4854,1.7314,1.5938,1.7314,3.4639,0,1.3848-1.1772,2.7012-2.978,2.7012-1.7314,0-2.978-1.0391-2.978-2.7012,0-3.4639,7.9648-7.6191,13.2285-7.6191,5.7485,0,8.7266,2.1475,8.311,10.1123l-.6924,14.96c-.1387,2.2852,.7617,3.1162,2.2852,3.1162,1.1084,0,2.1475-.9004,3.1167-1.8701l.3467,.208c-1.2471,1.5244-3.2554,4.4326-6.0952,4.4326-2.4238,0-4.1553-1.8701-4.3633-4.8477Zm.0693-.9004l.4155-11.0127c-9.835,2.3545-11.3584,5.333-11.3584,8.7266,0,3.1172,2.0083,5.126,4.7095,5.126,2.2856,0,4.3633-.9697,6.2334-2.8398Z"/><path class="svg__loading-logo" d="M186.3192,80.1046l2.6318-.2764c2.4238-.208,3.186-.6924,3.186-1.1084V38.8263c0-.4844-.2773-.6924-3.8789-.9697l-1.8696-.208-.208-.415h18.146l-.208,.415-3.1162,.2773c-2.4243,.208-3.3247,.6924-3.3247,1.1084v23.1328l11.3589-11.4971c11.1504-11.29,11.0811-12.3281,4.8477-12.8135l-2.7012-.208-.1377-.415h16.8984l-.207,.415-.8311,.0693c-5.333,.416-4.71,.5547-17.4541,13.5752l-1.0391,1.0391,13.5059,22.3018c2.9785,4.8477,3.2559,5.0557,6.2334,5.333l1.5928,.1377,.208,.416h-17.6611l.208-.416,2.0088-.1377c3.2549-.208,3.1162-2.0088,.9688-5.749l-10.7344-18.1455-7.0649,7.0645v15.791c0,.4844,.4155,.6924,4.0171,.9697l2.3545,.207,.208,.416h-18.146l.208-.416Z"/><path class="svg__loading-logo" d="M247.681,76.3654v-.0693c-2.6318,2.4932-5.6104,4.8477-8.8652,4.8477-4.0859,0-6.9258-2.9775-6.9258-6.4404,0-4.502,3.3936-7.8271,16.2764-10.9434l.0684-3.0479c.2773-6.9258-3.1162-8.8652-6.7178-8.8652-2.7705,0-5.748,1.7314-5.748,2.5625,0,.4854,1.7314,1.5938,1.7314,3.4639,0,1.3848-1.1777,2.7012-2.9785,2.7012-1.7314,0-2.9785-1.0391-2.9785-2.7012,0-3.4639,7.9648-7.6191,13.2285-7.6191,5.749,0,8.7275,2.1475,8.3115,10.1123l-.6924,14.96c-.1387,2.2852,.7617,3.1162,2.2852,3.1162,1.1084,0,2.1475-.9004,3.1172-1.8701l.3457,.208c-1.2461,1.5244-3.2549,4.4326-6.0947,4.4326-2.4238,0-4.1553-1.8701-4.3633-4.8477Zm.0693-.9004l.416-11.0127c-9.835,2.3545-11.3594,5.333-11.3594,8.7266,0,3.1172,2.0088,5.126,4.71,5.126,2.2852,0,4.3633-.9697,6.2334-2.8398Z"/><path class="svg__loading-logo" d="M261.3939,80.1046l1.2461-.0684c2.1475-.1387,2.9092-.208,2.9092-1.0391v-20.0859c0-4.2939-.4844-5.125-2.8398-5.4707l-1.5928-.2773,.0693-.2773,9.2812-2.4238-.208,5.9561,.208,.1387c2.6318-2.2852,6.7871-6.2334,11.7041-6.2334,2.1475,0,3.9482,.623,5.1943,1.9395,1.5244,1.5234,2.2168,3.7402,2.2168,6.7178v20.0859c0,.415,0,.6924,3.4629,.9697l.9697,.0684,.208,.416h-13.7832l.208-.416,1.2471-.0684c2.4238-.1387,2.8389-.4854,2.8389-1.0391v-19.1162c0-4.0859-2.0771-6.0947-6.0947-6.0947-3.2549,0-6.0254,1.5234-8.2412,3.6016v21.748c0,.5537,.415,.6924,3.4629,.9004l.9697,.0684,.207,.416h-13.8516l.208-.416Z"/><path class="svg__loading-logo" d="M296.7855,80.1046l1.2461-.0684c2.1475-.1387,2.9092-.208,2.9092-1.0391v-20.0859c0-4.2939-.4844-5.125-2.8398-5.4707l-1.5928-.2773,.0693-.2773,9.2812-2.4238-.208,5.9561,.208,.1387c2.6318-2.2852,6.7871-6.2334,11.7041-6.2334,2.1475,0,3.9482,.623,5.1943,1.9395,1.5244,1.5234,2.2168,3.7402,2.2168,6.7178v20.0859c0,.415,0,.6924,3.4629,.9697l.9697,.0684,.208,.416h-13.7832l.208-.416,1.2471-.0684c2.4238-.1387,2.8389-.4854,2.8389-1.0391v-19.1162c0-4.0859-2.0771-6.0947-6.0947-6.0947-3.2549,0-6.0254,1.5234-8.2412,3.6016v21.748c0,.5537,.415,.6924,3.4629,.9004l.9697,.0684,.207,.416h-13.8516l.208-.416Z"/><path class="svg__loading-logo" d="M332.3842,65.9757c0-8.6572,6.7178-15.7217,15.5137-15.7217s15.4453,6.7188,15.4453,15.4453c0,8.8652-6.7188,15.7217-15.4453,15.7217-8.8652,0-15.5137-6.7178-15.5137-15.4453Zm25.1406,.3467c0-5.333-1.1777-10.3193-3.8096-12.9512-1.5234-1.4551-3.4629-2.5625-5.9561-2.5625-5.9561,0-9.627,6.8564-9.627,14.2666,0,5.6797,1.2471,10.7354,3.9482,13.3672,1.5234,1.5244,3.5322,2.4248,5.8867,2.4248,5.6797,0,9.5576-6.7881,9.5576-14.5449Z"/></g></g></svg>
