<?xml version="1.0" encoding="utf-8"?>
<!-- Generator: Adobe Illustrator 27.8.1, SVG Export Plug-In . SVG Version: 6.00 Build 0)  -->
<svg version="1.1" id="Layer_1" xmlns="http://www.w3.org/2000/svg" xmlns:xlink="http://www.w3.org/1999/xlink" x="0px" y="0px"
	 viewBox="0 0 400 115" style="enable-background:new 0 0 400 115;" xml:space="preserve">
<style type="text/css">
	.st0{fill:#FFFFFF;}
</style>
<g>
	<rect width="400" height="115"/>
	<path class="st0" d="M99,15.1v84.9H301V15.1H99z M158.2,47.6c-12.8,0-23.2-10.4-23.3-23.2h46.6C181.4,37.3,171,47.6,158.2,47.6z
		 M162.7,57.3c16.2-2.2,28.7-16.1,28.7-32.8h17.8v33.3c0,12.8-10.4,23.3-23.3,23.3v9.4l0,0v-9.4c-12.8,0-23.3-10.4-23.3-23.3
		L162.7,57.3L162.7,57.3z M219.2,60.6h43.1v29.9h-70.1C206.7,87.8,217.9,75.6,219.2,60.6z M262.3,50.6h-43V24.5h43V50.6z
		 M108.5,24.5h16.4c0.1,16.4,12.1,30.1,27.8,32.7v0.6c0,16.3,11.7,29.8,27.1,32.7h-71.4V24.5z M291.5,90.5h-19.3v-66h19.3V90.5z"/>
</g>
</svg>
